<svg width="556" height="435" viewBox="0 0 556 435" fill="none" xmlns="http://www.w3.org/2000/svg">
<path d="M285.701 401.916L493.853 284.854C495.353 284.044 496.616 282.831 497.51 281.341C498.404 279.851 498.896 278.139 498.934 276.384C498.973 274.629 498.556 272.896 497.728 271.366C496.9 269.835 495.692 268.563 494.228 267.684L292.442 142.47C290.898 141.518 289.141 141.004 287.345 140.979C285.55 140.954 283.78 141.418 282.212 142.325L62.0218 270.324C60.5236 271.164 59.2721 272.408 58.3998 273.926C57.5276 275.444 57.067 277.178 57.067 278.946C57.067 280.713 57.5276 282.447 58.3998 283.965C59.2721 285.483 60.5236 286.727 62.0218 287.567L258.359 401.714C262.533 404.13 267.226 405.414 272.005 405.45C276.784 405.485 281.494 404.27 285.701 401.916V401.916Z" fill="#00275E"/>
<path d="M250.464 228.048C250.464 228.048 208.361 251.379 198.395 307.046C198.395 307.046 239.4 316.064 294.305 268.925" fill="#EB773A"/>
<path d="M249.936 235.147C249.936 235.147 231.977 251.87 226.917 263.673C221.858 275.475 215.255 292.747 215.255 292.747C215.255 292.747 246.878 295.546 276.61 276.659C306.342 257.771 278 222.449 249.936 235.147Z" fill="#FFAE46"/>
<path d="M267.783 229.274C266.699 231.164 248.198 241.986 244.737 257.598L250.77 252.851C250.77 252.851 240.512 267.77 236.161 276.356C236.161 276.356 261.181 266.01 260.403 266.63L253.328 272.2C253.328 272.2 272.357 271.782 285.297 259.777C298.238 247.772 280.446 226.836 280.446 226.836L267.783 229.274Z" fill="#FAD374"/>
<path d="M323.62 229.13C323.62 229.13 320.353 251.134 313.362 256.545C306.37 261.956 283.671 279.891 283.671 279.891L279.904 274.725C279.904 274.725 295.556 245.766 298.322 232.982C301.088 220.198 323.62 229.13 323.62 229.13Z" fill="#68E1FD"/>
<path opacity="0.61" d="M323.62 229.13C323.62 229.13 320.353 251.134 313.362 256.545C306.37 261.956 283.671 279.891 283.671 279.891L279.904 274.725C279.904 274.725 295.556 245.766 298.322 232.982C301.088 220.198 323.62 229.13 323.62 229.13Z" fill="#363636"/>
<path d="M301.018 198.165C301.018 198.165 279.724 195.481 272.746 201.051C265.768 206.621 243.055 224.397 243.055 224.397L246.822 229.563C246.822 229.563 277.917 221.757 290.524 222.464C303.131 223.171 301.018 198.165 301.018 198.165Z" fill="#68E1FD"/>
<path opacity="0.61" d="M301.018 198.165C301.018 198.165 279.724 195.481 272.746 201.051C265.768 206.621 243.055 224.397 243.055 224.397L246.822 229.563C246.822 229.563 277.917 221.757 290.524 222.464C303.131 223.171 301.018 198.165 301.018 198.165Z" fill="#363636"/>
<path d="M403.253 161.227C408.882 152.099 413.428 142.298 416.791 132.037C416.791 132.037 404.42 132.182 385.933 137.896C387.407 147.664 394.927 155.456 403.253 161.227Z" fill="#68E1FD"/>
<path d="M353.66 200.884C359.534 196.264 360.196 186.902 355.138 179.972C350.08 173.042 341.218 171.17 335.344 175.79C329.47 180.41 328.808 189.773 333.866 196.702C338.924 203.632 347.786 205.504 353.66 200.884Z" fill="#68E1FD"/>
<path d="M459.993 97.4947C459.993 97.4947 343.511 127.565 284.325 216.591C284.325 216.591 270.425 231.987 277.138 240.543C283.852 249.099 306.231 242.289 306.231 242.289C306.231 242.289 379.776 220.617 459.993 97.4947Z" fill="#68E1FD"/>
<path d="M284.325 216.591C284.325 216.591 269.646 214.744 264.864 218.539C260.083 222.334 244.404 234.627 244.404 234.627L247.003 238.191C247.003 238.191 268.437 232.809 277.11 233.3C285.784 233.79 284.325 216.591 284.325 216.591Z" fill="#68E1FD"/>
<path d="M302.005 240.817C302.005 240.817 299.754 255.982 294.93 259.762C290.107 263.543 274.469 275.851 274.469 275.851L271.884 272.33C271.884 272.33 282.67 252.375 284.575 243.559C286.479 234.743 302.005 240.817 302.005 240.817Z" fill="#68E1FD"/>
<path opacity="0.29" d="M284.325 216.591C284.325 216.591 269.646 214.744 264.864 218.539C260.083 222.334 244.404 234.627 244.404 234.627L247.003 238.191C247.003 238.191 268.437 232.809 277.11 233.3C285.784 233.79 284.325 216.591 284.325 216.591Z" fill="#363636"/>
<path opacity="0.29" d="M302.005 240.817C302.005 240.817 299.754 255.982 294.93 259.762C290.107 263.543 274.469 275.851 274.469 275.851L271.884 272.33C271.884 272.33 282.67 252.375 284.575 243.559C286.479 234.743 302.005 240.817 302.005 240.817Z" fill="#363636"/>
<path d="M403.406 119.181C403.406 119.181 403.003 139.627 423.853 147.202L411.76 161.458C411.76 161.458 385.572 146.178 389.631 126.107L403.406 119.181Z" fill="#68E1FD"/>
<path d="M328.61 166.58C328.61 166.58 328.846 201.21 359.954 211.065L336.853 227.456C336.853 227.456 303.493 215.437 309.678 184.631L328.61 166.58Z" fill="#68E1FD"/>
<path d="M384.839 161.588C386.907 159.961 387.313 156.902 385.746 154.755C384.179 152.608 381.232 152.187 379.164 153.813C377.096 155.44 376.69 158.499 378.257 160.646C379.823 162.792 382.77 163.214 384.839 161.588Z" fill="#68E1FD"/>
<path d="M367.777 187.133C373.194 182.916 374.292 174.939 370.229 169.316C366.167 163.693 358.482 162.554 353.066 166.771C347.649 170.988 346.551 178.965 350.614 184.588C354.676 190.21 362.361 191.35 367.777 187.133Z" fill="#68E1FD"/>
<path opacity="0.61" d="M403.406 119.181C403.406 119.181 403.003 139.627 423.853 147.202L411.76 161.458C411.76 161.458 385.572 146.178 389.631 126.107L403.406 119.181Z" fill="#606060"/>
<path opacity="0.61" d="M328.61 166.58C328.61 166.58 328.846 201.21 359.954 211.065L336.853 227.456C336.853 227.456 303.493 215.437 309.678 184.631L328.61 166.58Z" fill="#606060"/>
<path opacity="0.61" d="M384.839 161.588C386.907 159.961 387.313 156.902 385.746 154.755C384.179 152.608 381.232 152.187 379.164 153.813C377.096 155.44 376.69 158.499 378.257 160.646C379.823 162.792 382.77 163.214 384.839 161.588Z" fill="#606060"/>
<path opacity="0.61" d="M367.777 187.133C373.194 182.916 374.292 174.939 370.229 169.316C366.167 163.693 358.482 162.554 353.066 166.771C347.649 170.988 346.551 178.965 350.614 184.588C354.676 190.21 362.361 191.35 367.777 187.133Z" fill="#606060"/>
<path d="M425.757 250.585C425.388 250.585 425.035 250.738 424.774 251.008C424.514 251.279 424.367 251.646 424.367 252.028C424.367 252.411 424.514 252.778 424.774 253.049C425.035 253.319 425.388 253.471 425.757 253.471C426.126 253.471 426.479 253.319 426.74 253.049C427.001 252.778 427.147 252.411 427.147 252.028C427.147 251.646 427.001 251.279 426.74 251.008C426.479 250.738 426.126 250.585 425.757 250.585Z" fill="white"/>
<path d="M355.34 308.056V308.979C355.34 309.362 355.486 309.729 355.747 310C356.007 310.27 356.361 310.422 356.73 310.422C357.098 310.422 357.452 310.27 357.712 310C357.973 309.729 358.12 309.362 358.12 308.979V308.056C358.12 307.673 357.973 307.306 357.712 307.036C357.452 306.765 357.098 306.613 356.73 306.613C356.361 306.613 356.007 306.765 355.747 307.036C355.486 307.306 355.34 307.673 355.34 308.056Z" fill="white"/>
<path d="M257.984 331.027V331.95C257.984 332.333 258.13 332.7 258.391 332.97C258.652 333.241 259.005 333.393 259.374 333.393C259.743 333.393 260.096 333.241 260.357 332.97C260.618 332.7 260.764 332.333 260.764 331.95V331.027C260.764 330.644 260.618 330.277 260.357 330.006C260.096 329.736 259.743 329.584 259.374 329.584C259.005 329.584 258.652 329.736 258.391 330.006C258.13 330.277 257.984 330.644 257.984 331.027Z" fill="white"/>
<path d="M348.765 260.686C348.396 260.686 348.043 260.838 347.782 261.108C347.521 261.379 347.375 261.746 347.375 262.129C347.375 262.511 347.521 262.878 347.782 263.149C348.043 263.42 348.396 263.572 348.765 263.572C349.134 263.572 349.487 263.42 349.748 263.149C350.008 262.878 350.155 262.511 350.155 262.129C350.155 261.746 350.008 261.379 349.748 261.108C349.487 260.838 349.134 260.686 348.765 260.686Z" fill="white"/>
<path d="M182.382 257.901C182.013 257.901 181.66 258.053 181.399 258.324C181.138 258.594 180.992 258.961 180.992 259.344C180.992 259.727 181.138 260.094 181.399 260.364C181.66 260.635 182.013 260.787 182.382 260.787C182.751 260.787 183.104 260.635 183.365 260.364C183.625 260.094 183.772 259.727 183.772 259.344C183.772 258.961 183.625 258.594 183.365 258.324C183.104 258.053 182.751 257.901 182.382 257.901Z" fill="white"/>
<path d="M119.915 262.129V263.052C119.915 263.435 120.062 263.802 120.322 264.072C120.583 264.343 120.937 264.495 121.305 264.495C121.674 264.495 122.027 264.343 122.288 264.072C122.549 263.802 122.695 263.435 122.695 263.052V262.129C122.695 261.746 122.549 261.379 122.288 261.108C122.027 260.838 121.674 260.686 121.305 260.686C120.937 260.686 120.583 260.838 120.322 261.108C120.062 261.379 119.915 261.746 119.915 262.129Z" fill="white"/>
<path d="M149.634 307.536C149.265 307.536 148.911 307.688 148.651 307.959C148.39 308.23 148.244 308.597 148.244 308.979C148.244 309.362 148.39 309.729 148.651 310C148.911 310.27 149.265 310.422 149.634 310.422C150.002 310.422 150.356 310.27 150.616 310C150.877 309.729 151.024 309.362 151.024 308.979C151.024 308.597 150.877 308.23 150.616 307.959C150.356 307.688 150.002 307.536 149.634 307.536Z" fill="white"/>
<path d="M195.656 225.768C195.288 225.768 194.934 225.92 194.673 226.19C194.413 226.461 194.266 226.828 194.266 227.211C194.266 227.593 194.413 227.96 194.673 228.231C194.934 228.502 195.288 228.654 195.656 228.654C196.025 228.654 196.379 228.502 196.639 228.231C196.9 227.96 197.046 227.593 197.046 227.211C197.046 226.828 196.9 226.461 196.639 226.19C196.379 225.92 196.025 225.768 195.656 225.768Z" fill="white"/>
<path d="M263.794 179.841C263.426 179.841 263.072 179.993 262.811 180.263C262.551 180.534 262.404 180.901 262.404 181.283C262.404 181.666 262.551 182.033 262.811 182.304C263.072 182.574 263.426 182.726 263.794 182.726C264.163 182.726 264.516 182.574 264.777 182.304C265.038 182.033 265.184 181.666 265.184 181.283C265.184 180.901 265.038 180.534 264.777 180.263C264.516 179.993 264.163 179.841 263.794 179.841Z" fill="white"/>
<path d="M305.397 359.899C305.028 359.899 304.675 360.051 304.414 360.322C304.153 360.592 304.007 360.959 304.007 361.342C304.007 361.725 304.153 362.092 304.414 362.362C304.675 362.633 305.028 362.785 305.397 362.785C305.766 362.785 306.119 362.633 306.38 362.362C306.641 362.092 306.787 361.725 306.787 361.342C306.787 360.959 306.641 360.592 306.38 360.322C306.119 360.051 305.766 359.899 305.397 359.899Z" fill="white"/>
<path d="M397.429 278.794C388.491 278.794 388.463 293.223 397.429 293.223C406.394 293.223 406.394 278.794 397.429 278.794Z" fill="#FFAE46"/>
<path d="M147.868 270.526C138.931 270.526 138.903 284.955 147.868 284.955C156.834 284.955 156.82 270.526 147.868 270.526Z" fill="#FFAE46"/>
<path d="M281.1 365.425C279.796 364.073 278.029 363.313 276.186 363.313C274.343 363.313 272.576 364.073 271.272 365.425C269.995 366.798 269.269 368.625 269.243 370.533V371.457C269.263 373.366 269.99 375.195 271.272 376.564C272.576 377.917 274.343 378.677 276.186 378.677C278.029 378.677 279.796 377.917 281.1 376.564C282.377 375.192 283.103 373.365 283.129 371.457V370.533C283.109 368.623 282.382 366.795 281.1 365.425V365.425Z" fill="#00AEE1"/>
<path d="M153.943 172.395C170.678 172.395 184.245 158.312 184.245 140.94C184.245 123.568 170.678 109.485 153.943 109.485C137.207 109.485 123.641 123.568 123.641 140.94C123.641 158.312 137.207 172.395 153.943 172.395Z" fill="#68E1FD"/>
<path d="M178.587 123.64C181.784 122.725 185.034 122.021 188.317 121.533C189.966 121.274 191.627 121.11 193.293 121.043C195.023 120.942 196.758 121.048 198.464 121.36C199.451 121.534 200.395 121.906 201.244 122.457C201.756 122.807 202.192 123.264 202.523 123.799C202.871 124.382 203.072 125.047 203.107 125.732C203.119 126.865 202.866 127.984 202.37 128.993C201.977 129.851 201.512 130.672 200.98 131.446C198.873 134.256 196.435 136.781 193.724 138.963C188.521 143.263 182.994 147.123 177.197 150.507C171.462 153.949 165.555 157.074 159.503 159.871C153.448 162.714 147.233 165.172 140.89 167.23C137.695 168.289 134.447 169.17 131.16 169.87C127.793 170.637 124.372 171.125 120.93 171.327C119.167 171.421 117.399 171.349 115.648 171.111C113.776 170.891 111.952 170.345 110.255 169.495C109.322 169.029 108.468 168.41 107.725 167.663C106.891 166.807 106.292 165.736 105.988 164.56C105.719 163.437 105.719 162.263 105.988 161.141C106.216 160.164 106.567 159.223 107.03 158.341C108.862 155.271 111.217 152.572 113.98 150.377C116.532 148.183 119.262 146.223 122.139 144.519C119.755 146.805 117.482 149.212 115.328 151.733C113.174 154.118 111.388 156.833 110.032 159.784C109.487 160.909 109.358 162.203 109.671 163.42C109.85 163.872 110.137 164.269 110.505 164.575C110.981 164.959 111.504 165.275 112.062 165.513C114.827 166.464 117.763 166.755 120.652 166.364C126.948 165.604 133.143 164.123 139.125 161.949C145.241 159.9 151.204 157.331 157.195 154.734C169.05 149.462 180.396 143.037 191.083 135.544C193.65 133.703 196.022 131.584 198.158 129.224C198.633 128.671 199.06 128.077 199.437 127.449C199.733 126.966 199.932 126.426 200.021 125.862C200.034 125.67 199.996 125.477 199.913 125.305C199.83 125.132 199.704 124.986 199.548 124.881C199.023 124.484 198.435 124.186 197.811 124.001C194.737 123.233 191.573 122.922 188.415 123.077C185.12 123.092 181.854 123.294 178.587 123.64Z" fill="#8CC63F"/>
</svg>
